<?xml version="1.0" encoding="UTF-8" standalone="no"?>
<!-- Created with Inkscape (http://www.inkscape.org/) -->

<svg
   xmlns:dc="http://purl.org/dc/elements/1.1/"
   xmlns:cc="http://creativecommons.org/ns#"
   xmlns:rdf="http://www.w3.org/1999/02/22-rdf-syntax-ns#"
   xmlns:svg="http://www.w3.org/2000/svg"
   xmlns="http://www.w3.org/2000/svg"
   xmlns:sodipodi="http://sodipodi.sourceforge.net/DTD/sodipodi-0.dtd"
   xmlns:inkscape="http://www.inkscape.org/namespaces/inkscape"
   width="300"
   height="300"
   viewBox="0 0 79.374998 79.375003"
   version="1.1"
   id="svg8"
   inkscape:version="0.92.2 5c3e80d, 2017-08-06"
   sodipodi:docname="go1f-logo2.svg"
   inkscape:export-filename="/home/slackware-user/go1f-logo.png"
   inkscape:export-xdpi="96"
   inkscape:export-ydpi="96"
   style="enable-background:new">
  <sodipodi:namedview
     id="base"
     pagecolor="#ffffff"
     bordercolor="#666666"
     borderopacity="1.0"
     inkscape:pageopacity="0.0"
     inkscape:pageshadow="2"
     inkscape:zoom="1.4142136"
     inkscape:cx="-155.77346"
     inkscape:cy="265.52067"
     inkscape:document-units="mm"
     inkscape:current-layer="layer1"
     showgrid="true"
     units="px"
     inkscape:pagecheckerboard="false"
     showguides="false"
     inkscape:snap-global="false"
     inkscape:window-width="1678"
     inkscape:window-height="996"
     inkscape:window-x="0"
     inkscape:window-y="0"
     inkscape:window-maximized="1">
    <inkscape:grid
       type="axonomgrid"
       id="grid3699"
       units="mm"
       empspacing="5"
       gridanglex="30"
       gridanglez="30"
       spacingy="25" />
  </sodipodi:namedview>
  <defs
     id="defs2" />
  <metadata
     id="metadata5">
    <rdf:RDF>
      <cc:Work
         rdf:about="">
        <dc:format>image/svg+xml</dc:format>
        <dc:type
           rdf:resource="http://purl.org/dc/dcmitype/StillImage" />
        <dc:title />
      </cc:Work>
    </rdf:RDF>
  </metadata>
  <g
     inkscape:label="Background"
     inkscape:groupmode="layer"
     id="layer1"
     transform="translate(0,-217.62498)"
     style="display:inline">
    <g
       id="flowRoot854"
       style="font-style:normal;font-variant:normal;font-weight:normal;font-stretch:normal;font-size:40px;line-height:1.25;font-family:'URW Chancery L';-inkscape-font-specification:'URW Chancery L';letter-spacing:0px;word-spacing:0px;opacity:0.95999995;fill:#000000;fill-opacity:1;stroke:none"
       transform="matrix(0.09002304,0,0,0.09002304,148.08485,74.973503)"
       aria-label="#!" />
    <g
       aria-label="."
       transform="matrix(0.07929599,0,0,0.07929599,172.70144,61.054773)"
       style="font-style:normal;font-variant:normal;font-weight:normal;font-stretch:normal;font-size:140px;line-height:1.25;font-family:'Mukti Narrow';-inkscape-font-specification:'Mukti Narrow';letter-spacing:0px;word-spacing:0px;fill:#ffffff;fill-opacity:1;stroke:#000200;stroke-opacity:0.78431373"
       id="flowRoot1374" />
    <flowRoot
       transform="matrix(0.13811869,0,0,0.13811869,106.39905,55.555618)"
       style="font-style:normal;font-weight:normal;font-size:40px;line-height:1.25;font-family:sans-serif;letter-spacing:0px;word-spacing:0px;display:inline;fill:#000000;fill-opacity:1;stroke:none"
       id="flowRoot892"
       xml:space="preserve"><flowRegion
         id="flowRegion894"><rect
           y="205.2079"
           x="671.75146"
           height="40.153564"
           width="130.05714"
           id="rect896" /></flowRegion><flowPara
         id="flowPara898">#!</flowPara></flowRoot>    <path
       inkscape:connector-curvature="0"
       id="path1740-3"
       d="m 1.159896,232.9526 c 0,0 0.970113,-0.0191 1.6564139,-0.12528 0.2962929,-0.0458 0.9590923,-0.0824 1.3676926,-0.14562 0.320461,-0.0495 0.4118715,-0.59799 0.7962485,-0.65748 0.3303305,-0.0511 0.3459508,-0.043 0.7203663,-0.10099 0.3359956,-0.052 1.1625759,0.40544 1.5318595,0.34831 0.3395797,-0.0525 0.5107265,-0.33782 0.8767776,-0.39445 0.3419903,-0.0528 0.5486908,-0.22488 0.9124204,-0.28117 0.3434052,-0.0531 0.5855695,0.53757 0.9472031,0.4816 0.3447961,-0.0533 1.1686581,-0.71818 1.5290461,-0.77395 0.34615,-0.0535 0.664158,0.39681 1.023831,0.34115 0.347058,-0.0537 0.951937,-0.59828 1.310796,-0.65381 0.347923,-0.0539 0.425831,-0.3151 0.784125,-0.37053 0.348483,-0.0539 0.705334,0.14215 1.062974,0.0869 0.348975,-0.054 0.593428,0.41986 0.950524,0.36461 0.349006,-0.054 0.96435,-0.49045 1.32055,-0.54557 0.349787,-0.0541 -0.186107,0.0833 0.170051,0.0284 0.349766,-0.0541 0.902889,-0.89079 1.258323,-0.94578 0.350639,-0.0542 0.969524,0.21091 1.325196,0.15591 0.350813,-0.0542 0.55133,-0.38227 0.906583,-0.43725 0.350885,-0.0543 1.238927,-0.38725 1.593688,-0.44215 0.351381,-0.0543 0.224499,0.52841 0.579253,0.47351 0.351785,-0.0544 0.706253,-0.0339 1.060927,-0.0888 0.351566,-0.0543 0.408328,-0.53147 0.762329,-0.58625 0.351786,-0.0544 0.250144,0.74293 0.603926,0.6882 0.352387,-0.0544 1.421362,-0.0846 1.775337,-0.13928 0.352347,-0.0544 1.025695,-0.56405 1.379223,-0.61877 0.35264,-0.0545 0.26212,-0.5577 0.615546,-0.61238 0.352723,-0.0545 1.164157,0.29799 1.517275,0.24334 0.353047,-0.0546 1.365892,0.0478 1.718953,-0.007 0.353067,-0.0546 -0.206889,-1.24228 0.145826,-1.29685 0.353204,-0.0546 0.364574,1.42193 0.717008,1.36739 0.353381,-0.0547 0.499744,-1.10847 0.851945,-1.16296 0.353481,-0.0546 0.896032,0.0247 1.247951,-0.0299 0.353865,-0.0548 1.007154,0.003 1.359024,-0.0518 0.353969,-0.0548 0.604323,0.28914 0.95587,0.2347 0.354088,-0.0548 0.850711,-0.18104 1.201922,-0.23539 0.354451,-0.0548 1.013833,-0.20187 1.36492,-0.25618 0.354849,-0.0549 0.889685,-0.12844 1.240655,-0.18274 0.35508,-0.055 0.04447,-0.77038 0.39511,-0.82464 0.355577,-0.0549 0.951929,0.62862 1.302476,0.5744 0.356029,-0.055 0.772211,-0.21908 1.12255,-0.27328 0.356114,-0.055 0.303602,-0.67652 0.653317,-0.73063 0.356617,-0.055 1.371265,0.57415 1.720677,0.52009 0.356988,-0.0552 0.275145,-0.85323 0.624025,-0.90722 0.357659,-0.0552 0.486985,1.00492 0.835488,0.95098 0.358275,-0.0553 0.884049,-1.12956 1.231957,-1.18341 0.358796,-0.0555 0.870308,0.4254 1.217318,0.37168 0.359605,-0.0555 0.656981,-0.0497 1.003094,-0.10332 0.360506,-0.0558 0.848211,-0.0949 1.193126,-0.14819 0.361906,-0.056 0.921487,-0.62562 1.265137,-0.6788 0.363487,-0.0563 0.321719,0.62851 0.663503,0.57564 0.366259,-0.0566 1.146999,-0.49663 1.486778,-0.54921 0.369664,-0.0572 0.377977,-0.21789 0.714281,-0.26992 0.374847,-0.0581 0.897286,-0.21463 1.227932,-0.2658 0.384417,-0.0594 0.313618,-0.3645 0.634069,-0.4141 0.407843,-0.0631 1.050836,0.13561 1.346681,0.0899 0.686145,-0.1062 1.039228,-0.61308 1.039228,-0.61308 0,0 0.150515,1.04396 0.341664,1.69683 0.08257,0.28184 0.102679,0.5202 0.216475,0.90891 0.08929,0.30486 0.790297,0.13467 0.897334,0.50037 0.09196,0.31424 -0.09818,1.01067 0.0059,1.36683 0.09354,0.31963 0.07309,1.45928 0.175969,1.81057 0.09461,0.32306 -0.443289,0.38668 -0.341339,0.73488 0.09521,0.32533 0.765841,0.40008 0.86714,0.74607 0.0956,0.32669 -0.06421,1.21322 0.03645,1.55724 0.09601,0.32801 0.549664,-0.0489 0.650034,0.29391 0.09641,0.32929 0.145883,1.13155 0.246056,1.47369 0.0967,0.33015 0.462628,0.20925 0.562573,0.55063 0.09689,0.33097 -0.699627,0.78721 -0.599839,1.12805 0.09709,0.33152 0.52191,0.90086 0.621519,1.24108 0.09719,0.33199 0.557734,-0.0398 0.657185,0.29995 0.09719,0.33201 0.0725,1.19701 0.171683,1.53585 0.09739,0.33275 -0.269683,1.02201 -0.170478,1.36084 0.09739,0.33272 -0.03803,-0.30133 0.06093,0.0367 0.09769,0.33358 0.822141,1.17101 0.921207,1.50936 0.09769,0.33373 0.270867,0.87125 0.369804,1.2092 0.09769,0.33378 0.352788,1.22397 0.451597,1.56144 0.09789,0.33427 0.01837,0.37721 0.11716,0.71467 0.09798,0.33466 0.147889,-0.5597 0.24668,-0.2223 0.09789,0.33444 0.131906,1.63724 0.230487,1.974 0.09798,0.33464 0.06963,0.36376 0.168157,0.70031 0.09817,0.33522 0.599721,0.86133 0.698303,1.19805 0.09818,0.33519 0.251972,0.26817 0.350436,0.60446 0.09817,0.33546 -0.581281,1.01264 -0.482856,1.34884 0.09828,0.33554 0.175494,1.07536 0.273839,1.41127 0.09838,0.33584 0.840373,-0.0744 0.938709,0.26129 0.09838,0.33587 -0.11323,1.2855 -0.01502,1.62101 0.09838,0.33599 0.440741,0.57341 0.538898,0.9087 0.09848,0.33615 0.113685,0.31843 0.211782,0.65348 0.09848,0.33625 0.200968,0.007 0.298998,0.34153 0.09857,0.33661 0.165498,1.35955 0.263487,1.69429 0.09858,0.33672 -0.190467,1.16048 -0.09255,1.49489 0.09857,0.33685 0.727233,0.45972 0.825055,0.79383 0.09867,0.33717 0.772933,0.51529 0.870715,0.84929 0.09882,0.33755 -0.643377,0.58387 -0.545634,0.91773 0.09891,0.33779 -0.21844,0.41835 -0.120785,0.75192 0.09903,0.33827 0.742532,1.06992 0.840155,1.4034 0.09916,0.33868 -0.34925,1.01297 -0.251675,1.34626 0.09918,0.33876 0.841184,0.26222 0.938581,0.5949 0.09932,0.33922 -0.09235,1.17359 0.005,1.50598 0.09943,0.33959 0.204207,1.08926 0.301377,1.42112 0.09961,0.34026 -0.10609,0.27734 -0.0089,0.60886 0.09977,0.34082 0.625431,0.57321 0.722323,0.90418 0.09993,0.34133 0.215171,0.35027 0.311817,0.68037 0.100157,0.34211 0.807751,0.51335 0.904149,0.84259 0.100401,0.34295 -0.520941,0.5986 -0.424878,0.92671 0.100788,0.34428 -0.0318,0.48007 0.0639,0.80697 0.101235,0.3458 0.661304,1.80087 0.756488,2.12601 0.102011,0.34844 -0.11725,0.25089 -0.02262,0.5741 0.102955,0.35166 0.394171,0.14696 0.487825,0.46692 0.104397,0.35659 0.1734,1.35649 0.265483,1.67103 0.107067,0.36571 -0.206567,0.30347 -0.117319,0.60832 0.113585,0.38797 0.693918,1.30741 0.776322,1.58886 0.191089,0.6527 0.511806,0.34657 0.511806,0.34657 0,0 -1.197734,0.6704 -1.884225,0.8219 -0.295025,0.065 -0.403454,-0.77706 -0.811374,-0.68706 -0.319234,0.0705 -0.404739,0.47634 -0.78854,0.56103 -0.329121,0.0726 -0.382921,0.56205 -0.756794,0.64455 -0.334731,0.0738 -0.546919,0.0628 -0.915607,0.14411 -0.338267,0.0746 -0.376027,0.0584 -0.741407,0.13898 -0.340696,0.0752 -0.898154,0.21978 -1.261243,0.2999 -0.342543,0.0756 -1.299821,-0.2394 -1.66126,-0.16024 -0.343689,0.0758 -0.273236,0.16952 -0.633223,0.24894 -0.3445,0.076 -1.053638,0.35665 -1.412331,0.43578 -0.345645,0.0763 -0.95628,-0.042 -1.31444,0.0369 -0.346396,0.0765 0.149459,-0.0576 -0.208059,0.0211 -0.347027,0.0765 -0.566426,-0.0843 -0.92338,-0.006 -0.347176,0.0765 -1.306311,0.93693 -1.662386,1.0155 -0.34762,0.0767 -0.65441,-0.082 -1.010061,-0.004 -0.34853,0.0768 -0.673345,0.37833 -1.029143,0.45684 -0.348707,0.0769 -0.738966,0.0429 -1.094251,0.12133 -0.348866,0.0769 -0.898738,1.06173 -1.253567,1.14002 -0.349094,0.077 -0.08582,-1.03323 -0.440318,-0.95501 -0.349423,0.077 -1.47795,-0.19803 -1.832262,-0.11988 -0.349887,0.0771 -0.695262,0.65936 -1.049591,0.73755 -0.349874,0.0771 -0.793949,0.34889 -1.147825,0.42696 -0.350051,0.0771 -0.581611,-0.29263 -0.935215,-0.21482 -0.350437,0.0774 -0.513426,0.57907 -0.86709,0.6571 -0.350386,0.0772 -0.332661,-0.22312 -0.685903,-0.14526 -0.350559,0.0773 -0.728931,1.21193 -1.082032,1.28984 -0.350945,0.0774 -1.261088,-0.33659 -1.614249,-0.25869 -0.350911,0.0775 -0.325661,0.19088 -0.678492,0.26875 -0.35108,0.0774 -0.388181,-0.088 -0.740864,-0.0103 -0.351435,0.0776 -0.897495,0.76709 -1.250272,0.84492 -0.351358,0.0776 -0.514732,-0.60914 -0.86715,-0.53139 -0.351434,0.0776 -0.493901,-0.0698 -0.846117,0.007 -0.351643,0.0776 -0.811209,1.29125 -1.163378,1.36895 -0.351954,0.0777 -1.689109,-0.65726 -2.041324,-0.57953 -0.351767,0.0776 -0.79271,0.12339 -1.144471,0.20099 -0.35219,0.0776 -0.596621,0.43768 -0.948544,0.51532 -0.352064,0.0776 -0.459373,-0.16627 -0.810857,-0.0892 -0.352441,0.0778 -0.911699,-0.22248 -1.263349,-0.14489 -0.35221,0.0776 -0.0847,1.35095 -0.435858,1.42843 -0.35238,0.0779 -1.872846,0.01 -2.223885,0.0875 -0.352376,0.0779 1.084786,-0.71597 0.73404,-0.6386 -0.352619,0.0779 -1.774944,0.50615 -2.125647,0.58355 -0.353019,0.078 -0.500199,0.32938 -0.850992,0.40678 -0.353475,0.0781 -0.465277,-0.1048 -0.816106,-0.0278 -0.353018,0.078 -0.254686,-0.2187 -0.60479,-0.14153 -0.353343,0.0781 -1.434434,0.65948 -1.784544,0.73671 -0.353423,0.0781 -0.861876,0.28505 -1.211698,0.36224 -0.353944,0.0781 -1.256578,-0.33981 -1.60652,-0.26258 -0.35394,0.0781 -0.03972,0.0741 -0.38924,0.15135 -0.354039,0.0782 -0.19163,0.005 -0.540782,0.082 -0.354711,0.0783 -1.325046,0.76951 -1.674348,0.84659 -0.354967,0.0784 -0.783883,-0.67217 -1.132883,-0.59517 -0.355214,0.0784 -0.247757,0.98743 -0.596394,1.06436 -0.355737,0.0785 -0.387089,0.0674 -0.735555,0.14439 -0.356072,0.0786 -0.44855,0.0982 -0.796569,0.17495 -0.356306,0.0787 -1.921286,0.34423 -2.268672,0.42089 -0.356874,0.0788 0.526271,-0.17345 0.179332,-0.0969 -0.357433,0.0789 -1.397828,-0.1766 -1.744124,-0.10038 -0.35834,0.0791 -0.398288,0.61608 -0.744093,0.6924 -0.359074,0.0793 -1.178274,0.13403 -1.523127,0.21011 -0.359914,0.0795 -0.292441,0.59099 -0.636064,0.66682 -0.361278,0.0797 -1.262032,-0.56469 -1.604369,-0.48914 -0.362845,0.08 -0.311131,-0.20757 -0.651616,-0.1323 -0.365143,0.0805 -1.318528,0.60512 -1.656581,0.67972 -0.368297,0.0813 -0.795425,0.33387 -1.1298305,0.40766 -0.374458,0.0826 -0.3885587,0.3078 -0.7181123,0.38052 -0.3835149,0.0847 -0.7419006,0.33026 -1.0608841,0.40064 -0.4078906,0.0901 -0.3841934,0.0567 -0.6791169,0.12167 -0.6856073,0.15128 -0.837317,-0.20928 -0.837317,-0.20928 0,0 -0.1485802,0.0712 -0.1945258,-0.6111 -0.019789,-0.29375 -0.6408276,-0.78894 -0.6681136,-1.19431 -0.021411,-0.31809 0.5750025,0.0591 0.5493328,-0.32305 -0.022112,-0.3284 -0.2260807,-1.36177 -0.2511619,-1.7344 -0.022451,-0.33351 -0.6948412,-1.13549 -0.7195357,-1.50236 -0.022697,-0.33725 -0.00652,0.11247 -0.031103,-0.25135 -0.022864,-0.33953 0.4843243,-0.62714 0.4599961,-0.98852 -0.02297,-0.34146 -0.2488113,-0.8433 -0.2730355,-1.20319 -0.023056,-0.34252 0.2473637,-0.49575 0.223254,-0.85404 -0.02313,-0.34359 0.088839,-0.43065 0.064819,-0.78792 -0.023173,-0.34432 -0.4607719,-2.00868 -0.4847543,-2.36497 -0.023221,-0.34502 1.0810943,-0.57567 1.0571564,-0.93129 -0.023257,-0.34555 -1.0112787,-0.20289 -1.0351604,-0.55789 -0.0233,-0.34607 0.6148243,-0.57439 0.5909638,-0.92883 -0.023341,-0.34679 -0.074946,-0.61705 -0.098787,-0.97132 -0.023374,-0.34721 -0.3958537,-1.06197 -0.4196741,-1.41588 -0.023388,-0.34743 -0.3781287,-0.59295 -0.4019164,-0.94639 -0.023399,-0.34753 1.0461034,-0.32763 1.022349,-0.68051 -0.023427,-0.34816 -1.2463246,-1.63019 -1.2700817,-1.98314 -0.023438,-0.3482 -0.7592246,-0.014 -0.7829453,-0.36646 -0.023478,-0.34879 0.8646359,0.44442 0.8408787,0.0921 -0.023487,-0.34879 0.079066,-1.3638 0.055361,-1.71593 -0.023487,-0.34886 -0.4219589,-1.23796 -0.445636,-1.58972 -0.023516,-0.34951 0.5846161,-0.41399 0.5609203,-0.76598 -0.023527,-0.34963 0.1457439,-1.47944 0.1220756,-1.83115 -0.023537,-0.34972 -0.8921886,-0.18089 -0.915842,-0.53238 -0.023547,-0.34986 0.019695,-0.80154 -0.00396,-1.15275 -0.023557,-0.34991 0.014579,0.24922 -0.00899,-0.1018 -0.023556,-0.34995 -0.073494,-1.83221 -0.097091,-2.18287 -0.023585,-0.35042 0.091076,-0.78667 0.067461,-1.13743 -0.023576,-0.35027 -0.1210919,-0.51023 -0.1446674,-0.86051 -0.023585,-0.35044 -0.7559641,-0.90703 -0.7795306,-1.25714 -0.023616,-0.35089 0.7318861,-0.22227 0.7083116,-0.57247 -0.023626,-0.35106 0.050491,-1.0423 0.026924,-1.39233 -0.023646,-0.35135 -0.081949,-0.0369 -0.1055105,-0.38688 -0.023645,-0.35124 0.021246,-0.95334 -0.00227,-1.30284 -0.023666,-0.35155 -0.1028307,-0.66976 -0.1263544,-1.01919 -0.023675,-0.35171 -0.3262658,-0.22381 -0.349771,-0.57304 -0.023695,-0.35198 -0.3303459,-2.29363 -0.3538491,-2.64275 -0.023695,-0.35197 1.0022321,-0.44851 0.9787633,-0.79715 -0.023705,-0.35216 -0.1964987,-0.75984 -0.2199517,-1.10824 -0.023725,-0.35244 -0.4908054,0.14228 -0.5142504,-0.20588 -0.023774,-0.35326 -0.49406,-0.6415 -0.5175128,-0.98998 -0.023765,-0.35296 0.3364646,-0.7032 0.313064,-1.05083 -0.023784,-0.35338 0.542148,-0.99609 0.5187633,-1.34348 -0.023833,-0.35401 0.4585877,-0.34867 0.4352098,-0.696 -0.023873,-0.35442 -0.9087473,-1.48683 -0.9321034,-1.83379 -0.023883,-0.35476 -0.4765204,-0.92919 -0.499838,-1.27558 -0.023922,-0.3554 0.1318311,-0.0517 0.108548,-0.39775 -0.023931,-0.35553 0.2148474,-0.1095 0.1916266,-0.45445 -0.024021,-0.35696 -0.5740241,-1.51942 -0.5972429,-1.86436 -0.024071,-0.35769 0.3609201,-0.10018 0.3377663,-0.44416 -0.02413,-0.35853 0.2004714,-0.70333 0.1774007,-1.04605 -0.024218,-0.35987 0.3292644,-1.61073 0.3062825,-1.95216 -0.024327,-0.36138 -1.2775759,0.19819 -1.3004352,-0.14129 -0.024485,-0.36362 0.2201818,-1.03491 0.1974904,-1.372 -0.024683,-0.36673 -0.098701,-0.37367 -0.1211481,-0.70709 -0.025097,-0.37282 0.4565352,-1.38913 0.4344167,-1.7177 -0.025701,-0.38183 -0.1367421,-0.53012 -0.1581514,-0.84818 -0.02729,-0.40541 -0.2914255,-0.83106 -0.3112061,-1.12491 -0.045977,-0.68315 -0.070928,-0.91235 -0.070928,-0.91235"
       style="display:inline;fill:#5fa73e;fill-opacity:1;stroke:none;stroke-width:0.28387931px;stroke-linecap:butt;stroke-linejoin:miter;stroke-opacity:1;enable-background:new"
       inkscape:export-xdpi="10.34"
       inkscape:export-ydpi="10.34" />
    <path
       inkscape:connector-curvature="0"
       id="path1740"
       d="m 0.26654648,228.32425 c 0,0 0.97011342,-0.0191 1.65641402,-0.12527 0.2962933,-0.0458 0.9590921,-0.0824 1.3676924,-0.14563 0.3204616,-0.0495 0.4118716,-0.59799 0.7962488,-0.65748 0.3303307,-0.0511 0.3459504,-0.043 0.7203664,-0.10099 0.3359952,-0.052 1.1625748,0.40544 1.5318594,0.34831 0.3395798,-0.0525 0.5107265,-0.33781 0.8767777,-0.39445 0.3419903,-0.0528 0.5486897,-0.22488 0.9124205,-0.28117 0.3434039,-0.0531 0.585569,0.53757 0.9472034,0.48161 0.3447963,-0.0533 1.1686579,-0.71819 1.5290469,-0.77396 0.34615,-0.0535 0.664157,0.39682 1.023829,0.34115 0.347059,-0.0537 0.951938,-0.59827 1.310797,-0.65381 0.347923,-0.0539 0.42583,-0.3151 0.784124,-0.37052 0.348484,-0.0539 0.705335,0.14215 1.062974,0.0869 0.348976,-0.054 0.593428,0.41987 0.950523,0.36461 0.349008,-0.054 0.964352,-0.49045 1.32055,-0.54557 0.349788,-0.0541 -0.186105,0.0833 0.170053,0.0284 0.349764,-0.0541 0.90289,-0.8908 1.258323,-0.94579 0.350639,-0.0542 0.969525,0.21091 1.325194,0.15591 0.350814,-0.0542 0.551332,-0.38227 0.906585,-0.43725 0.350885,-0.0543 1.238927,-0.38725 1.593688,-0.44215 0.351381,-0.0543 0.224499,0.52841 0.579253,0.47351 0.351784,-0.0544 0.706253,-0.0339 1.060927,-0.0888 0.351565,-0.0543 0.408326,-0.53147 0.762329,-0.58626 0.351786,-0.0544 0.250144,0.74293 0.603927,0.6882 0.352386,-0.0544 1.42136,-0.0846 1.775337,-0.13927 0.352346,-0.0544 1.025694,-0.56406 1.37922,-0.61878 0.35264,-0.0545 0.262122,-0.55769 0.615547,-0.61238 0.352725,-0.0545 1.164156,0.29799 1.517273,0.24334 0.353048,-0.0546 1.365894,0.0478 1.718953,-0.007 0.353069,-0.0546 -0.206888,-1.24228 0.145828,-1.29684 0.353204,-0.0546 0.364574,1.42192 0.717008,1.36738 0.35338,-0.0547 0.499743,-1.10847 0.851945,-1.16295 0.35348,-0.0546 0.896032,0.0247 1.247951,-0.0299 0.353866,-0.0548 1.007153,0.003 1.359023,-0.0518 0.35397,-0.0548 0.604325,0.28913 0.955872,0.23469 0.354088,-0.0548 0.85071,-0.18104 1.20192,-0.23538 0.35445,-0.0548 1.013834,-0.20188 1.364921,-0.25619 0.354849,-0.0549 0.889686,-0.12844 1.240655,-0.18273 0.35508,-0.055 0.04447,-0.77039 0.395109,-0.82465 0.355578,-0.0549 0.95193,0.62863 1.302478,0.5744 0.356028,-0.055 0.77221,-0.21907 1.122552,-0.27328 0.35611,-0.055 0.3036,-0.67652 0.653315,-0.73063 0.356615,-0.055 1.371263,0.57416 1.720677,0.52009 0.356989,-0.0552 0.275144,-0.85323 0.624023,-0.90722 0.357659,-0.0552 0.486988,1.00492 0.835489,0.95099 0.358274,-0.0553 0.884048,-1.12957 1.231956,-1.18341 0.358798,-0.0555 0.870307,0.4254 1.21732,0.37168 0.359603,-0.0555 0.656981,-0.0497 1.003095,-0.10333 0.360504,-0.0558 0.848209,-0.0949 1.193125,-0.14819 0.361905,-0.056 0.921487,-0.62562 1.265136,-0.6788 0.363485,-0.0563 0.32172,0.62852 0.663502,0.57564 0.366262,-0.0566 1.147003,-0.49662 1.486777,-0.54921 0.369665,-0.0572 0.37798,-0.21788 0.714282,-0.26992 0.37485,-0.0581 0.897284,-0.21462 1.227933,-0.26579 0.384418,-0.0594 0.313617,-0.3645 0.634068,-0.4141 0.407841,-0.0632 1.050836,0.13561 1.34668,0.0899 0.686148,-0.10619 1.039227,-0.61307 1.039227,-0.61307 0,0 0.150522,1.04395 0.341664,1.69682 0.08251,0.28185 0.102679,0.5202 0.216481,0.90892 0.08926,0.30485 0.790289,0.13466 0.897328,0.50036 0.092,0.31424 -0.09818,1.01067 0.006,1.36683 0.09358,0.31963 0.07313,1.45928 0.175969,1.81058 0.09457,0.32305 -0.443283,0.38667 -0.341335,0.73487 0.09524,0.32534 0.765841,0.40009 0.867143,0.74607 0.09564,0.32669 -0.06424,1.21323 0.03648,1.55725 0.09603,0.32801 0.549661,-0.0489 0.650033,0.2939 0.09641,0.32929 0.145879,1.13155 0.246054,1.4737 0.09666,0.33015 0.462636,0.20924 0.562579,0.55062 0.09689,0.33097 -0.699632,0.78721 -0.599845,1.12805 0.09705,0.33152 0.521912,0.90087 0.621517,1.24109 0.09719,0.33198 0.557738,-0.0398 0.657185,0.29994 0.0972,0.33202 0.07248,1.19701 0.171686,1.53585 0.09742,0.33275 -0.269678,1.02202 -0.170479,1.36085 0.09742,0.33272 -0.03805,-0.30134 0.06092,0.0367 0.09766,0.33358 0.822148,1.17101 0.921209,1.50936 0.09771,0.33374 0.270865,0.87125 0.369806,1.2092 0.09773,0.33379 0.352787,1.22397 0.451589,1.56144 0.09788,0.33427 0.01836,0.37721 0.117166,0.71468 0.09797,0.33465 0.147885,-0.5597 0.246683,-0.22231 0.09792,0.33445 0.131899,1.63724 0.23049,1.97401 0.09798,0.33464 0.06962,0.36375 0.168154,0.7003 0.09815,0.33523 0.599718,0.86133 0.698302,1.19806 0.09814,0.33519 0.251972,0.26817 0.350431,0.60446 0.09821,0.33546 -0.581281,1.01263 -0.482849,1.34884 0.09823,0.33553 0.175491,1.07535 0.273838,1.41127 0.09832,0.33584 0.840368,-0.0744 0.938705,0.26128 0.09834,0.33587 -0.113226,1.28551 -0.01501,1.62101 0.09837,0.33599 0.440741,0.57342 0.538893,0.9087 0.09843,0.33616 0.113692,0.31844 0.211784,0.65348 0.09846,0.33626 0.200976,0.007 0.298998,0.34154 0.09855,0.3366 0.165497,1.35955 0.263495,1.69428 0.09858,0.33673 -0.190476,1.16049 -0.09258,1.4949 0.0986,0.33684 0.727235,0.45971 0.825049,0.79382 0.09872,0.33718 0.772934,0.5153 0.870714,0.84929 0.09882,0.33756 -0.643375,0.58388 -0.545625,0.91774 0.0989,0.33778 -0.218443,0.41834 -0.120786,0.75191 0.09903,0.33828 0.742523,1.06993 0.840151,1.4034 0.09916,0.33868 -0.349247,1.01297 -0.251678,1.34626 0.09918,0.33876 0.841184,0.26222 0.938583,0.59491 0.09932,0.33921 -0.09234,1.17359 0.005,1.50597 0.09943,0.3396 0.204209,1.08926 0.301375,1.42113 0.09962,0.34025 -0.106088,0.27733 -0.0091,0.60885 0.09978,0.34082 0.625436,0.57321 0.722331,0.90418 0.09993,0.34133 0.215171,0.35027 0.311814,0.68038 0.100157,0.3421 0.807751,0.51334 0.904147,0.84259 0.100401,0.34295 -0.520935,0.5986 -0.424873,0.9267 0.100787,0.34429 -0.03182,0.48008 0.06388,0.80698 0.101235,0.3458 0.661303,1.80087 0.75649,2.12601 0.102,0.34844 -0.117254,0.25088 -0.02261,0.57409 0.102955,0.35167 0.394172,0.14697 0.487823,0.46692 0.104398,0.35659 0.173399,1.3565 0.265484,1.67103 0.107067,0.36571 -0.206568,0.30348 -0.117323,0.60832 0.113587,0.38797 0.693925,1.30741 0.776319,1.58886 0.191097,0.6527 0.511808,0.34657 0.511808,0.34657 0,0 -1.197732,0.67041 -1.884219,0.82191 -0.295022,0.065 -0.403458,-0.77707 -0.811374,-0.68707 -0.319238,0.0705 -0.404736,0.47634 -0.788546,0.56103 -0.329114,0.0726 -0.382919,0.56205 -0.756786,0.64455 -0.334737,0.0739 -0.54692,0.0628 -0.915611,0.14412 -0.338264,0.0746 -0.376024,0.0584 -0.741405,0.13897 -0.340695,0.0753 -0.898154,0.21978 -1.261248,0.2999 -0.342543,0.0756 -1.299813,-0.2394 -1.661255,-0.16023 -0.343692,0.0758 -0.273239,0.16951 -0.633225,0.24893 -0.344502,0.076 -1.053636,0.35665 -1.412325,0.43579 -0.345657,0.0763 -0.956286,-0.042 -1.31445,0.0369 -0.346394,0.0765 0.149458,-0.0577 -0.208053,0.0211 -0.34703,0.0766 -0.566423,-0.0843 -0.923385,-0.006 -0.347168,0.0766 -1.306312,0.93693 -1.662387,1.01551 -0.347616,0.0767 -0.654412,-0.082 -1.010053,-0.004 -0.348531,0.0768 -0.673347,0.37833 -1.029152,0.45684 -0.348704,0.0769 -0.738959,0.0429 -1.094246,0.12133 -0.348869,0.0769 -0.898738,1.06174 -1.253567,1.14002 -0.349093,0.077 -0.08582,-1.03322 -0.440319,-0.95501 -0.34942,0.077 -1.477949,-0.19803 -1.832261,-0.11987 -0.349886,0.0771 -0.695263,0.65935 -1.04959,0.73754 -0.349874,0.0771 -0.793951,0.34889 -1.147827,0.42697 -0.350049,0.0771 -0.581612,-0.29264 -0.935216,-0.21483 -0.350436,0.0774 -0.513422,0.57908 -0.867089,0.6571 -0.350386,0.0772 -0.332659,-0.22312 -0.685904,-0.14526 -0.350556,0.0773 -0.728931,1.21194 -1.082031,1.28984 -0.350946,0.0774 -1.261087,-0.33658 -1.614249,-0.25869 -0.35091,0.0775 -0.32566,0.19088 -0.678491,0.26875 -0.35108,0.0774 -0.388182,-0.088 -0.740864,-0.0102 -0.351435,0.0776 -0.897495,0.76709 -1.250273,0.84492 -0.351357,0.0776 -0.514731,-0.60915 -0.867149,-0.5314 -0.351436,0.0776 -0.4939,-0.0697 -0.846118,0.007 -0.351643,0.0776 -0.811208,1.29125 -1.163377,1.36895 -0.351955,0.0777 -1.689108,-0.65725 -2.041325,-0.57952 -0.351766,0.0776 -0.792708,0.12338 -1.14447,0.20099 -0.352189,0.0776 -0.596622,0.43767 -0.948544,0.51532 -0.352062,0.0776 -0.459372,-0.16627 -0.810858,-0.0892 -0.35244,0.0778 -0.9117,-0.22248 -1.263348,-0.14489 -0.352209,0.0776 -0.0847,1.35094 -0.435858,1.42842 -0.352381,0.0779 -1.872846,0.01 -2.223885,0.0876 -0.352376,0.0779 1.084786,-0.71598 0.734039,-0.6386 -0.352618,0.0779 -1.774945,0.50614 -2.125646,0.58355 -0.35302,0.0779 -0.500199,0.32937 -0.850992,0.40678 -0.353475,0.078 -0.465278,-0.10481 -0.816107,-0.0278 -0.353017,0.078 -0.254684,-0.21869 -0.60479,-0.14152 -0.353341,0.078 -1.434433,0.65947 -1.784543,0.73671 -0.353422,0.078 -0.861874,0.28504 -1.211697,0.36223 -0.353947,0.0781 -1.256579,-0.33981 -1.60652,-0.26258 -0.35394,0.0781 -0.03972,0.0741 -0.38924,0.15135 -0.354041,0.0782 -0.19163,0.005 -0.540782,0.0821 -0.354712,0.0783 -1.325047,0.76951 -1.674348,0.84659 -0.354967,0.0784 -0.783884,-0.67217 -1.132882,-0.59516 -0.355216,0.0784 -0.247758,0.98742 -0.596395,1.06435 -0.355737,0.0785 -0.38709,0.0674 -0.735557,0.1444 -0.356071,0.0786 -0.448548,0.0982 -0.796569,0.17494 -0.356305,0.0787 -1.921283,0.34423 -2.26867,0.42089 -0.356874,0.0788 0.526271,-0.17344 0.179331,-0.0969 -0.357434,0.0789 -1.397828,-0.1766 -1.744124,-0.10038 -0.358339,0.0791 -0.398288,0.61608 -0.744093,0.69241 -0.359074,0.0793 -1.178274,0.13403 -1.523127,0.21011 -0.359914,0.0794 -0.29244,0.59099 -0.636063,0.66682 -0.361278,0.0797 -1.262034,-0.56469 -1.604371,-0.48915 -0.362843,0.08 -0.31113,-0.20757 -0.651615,-0.1323 -0.365143,0.0805 -1.318528,0.60512 -1.6565798,0.67972 -0.3682974,0.0813 -0.795426,0.33388 -1.1298314,0.40766 -0.3744579,0.0826 -0.3885584,0.30781 -0.718112,0.38053 -0.3835148,0.0846 -0.7419016,0.33026 -1.0608839,0.40063 -0.4078907,0.0901 -0.3841935,0.0567 -0.679117,0.12167 -0.6856077,0.15129 -0.8373169,-0.20927 -0.8373169,-0.20927 0,0 -0.1485798,0.0711 -0.1945255,-0.61111 -0.019779,-0.29374 -0.6408283,-0.78894 -0.6681137,-1.1943 -0.021414,-0.31809 0.5750024,0.0591 0.549333,-0.32306 -0.022117,-0.3284 -0.2260817,-1.36177 -0.2511616,-1.7344 -0.022451,-0.33351 -0.6948417,-1.13549 -0.7195368,-1.50236 -0.022694,-0.33725 -0.00657,0.11247 -0.031099,-0.25135 -0.022861,-0.33953 0.4843246,-0.62714 0.4599971,-0.98851 -0.022976,-0.34146 -0.2488111,-0.8433 -0.2730356,-1.20319 -0.023053,-0.34252 0.2473626,-0.49576 0.223253,-0.85404 -0.023127,-0.34359 0.088846,-0.43065 0.064822,-0.78793 -0.023173,-0.34431 -0.4607706,-2.00867 -0.4847537,-2.36497 -0.023219,-0.34502 1.081094,-0.57567 1.0571568,-0.93129 -0.023262,-0.34555 -1.0112793,-0.20288 -1.0351604,-0.55788 -0.023296,-0.34608 0.6148236,-0.5744 0.590964,-0.92884 -0.02334,-0.34679 -0.074943,-0.61705 -0.098788,-0.97132 -0.023365,-0.3472 -0.3958544,-1.06197 -0.4196742,-1.41588 -0.023384,-0.34743 -0.3781287,-0.59295 -0.4019164,-0.94639 -0.0234,-0.34753 1.0461036,-0.32763 1.0223488,-0.68051 -0.023429,-0.34815 -1.2463241,-1.63018 -1.2700815,-1.98314 -0.023437,-0.34819 -0.7592249,-0.014 -0.7829447,-0.36645 -0.02348,-0.34879 0.8646355,0.44441 0.840878,0.0921 -0.023486,-0.34878 0.079065,-1.36379 0.055361,-1.71592 -0.023483,-0.34887 -0.4219585,-1.23797 -0.4456358,-1.58973 -0.023521,-0.34951 0.5846159,-0.41399 0.5609199,-0.76598 -0.023531,-0.34962 0.1457447,-1.47943 0.1220765,-1.83114 -0.023541,-0.34972 -0.892189,-0.1809 -0.9158424,-0.53239 -0.023547,-0.34985 0.019697,-0.80153 -0.00395,-1.15274 -0.023554,-0.34992 0.014581,0.24921 -0.00904,-0.10181 -0.023555,-0.34995 -0.073492,-1.83221 -0.097093,-2.18286 -0.02359,-0.35043 0.091073,-0.78668 0.067463,-1.13744 -0.023576,-0.35027 -0.1210917,-0.51023 -0.1446674,-0.8605 -0.023588,-0.35045 -0.7559644,-0.90704 -0.7795305,-1.25714 -0.023619,-0.3509 0.7318854,-0.22228 0.7083112,-0.57248 -0.023629,-0.35106 0.050487,-1.0423 0.026923,-1.39233 -0.02365,-0.35134 -0.081949,-0.0369 -0.1055106,-0.38688 -0.023641,-0.35123 0.021247,-0.95333 -0.00228,-1.30284 -0.02366,-0.35155 -0.1028306,-0.66975 -0.1263542,-1.01919 -0.023672,-0.3517 -0.3262653,-0.2238 -0.3497707,-0.57304 -0.023699,-0.35198 -0.3303463,-2.29363 -0.3538493,-2.64275 -0.023691,-0.35196 1.0022322,-0.4485 0.9787632,-0.79715 -0.023708,-0.35216 -0.1964982,-0.75983 -0.2199512,-1.10824 -0.023726,-0.35244 -0.4908058,0.14228 -0.5142509,-0.20587 -0.023778,-0.35327 -0.4940601,-0.64151 -0.5175133,-0.98999 -0.023762,-0.35296 0.3364654,-0.7032 0.313065,-1.05082 -0.023786,-0.35339 0.5421474,-0.9961 0.518763,-1.34349 -0.023833,-0.35401 0.4585874,-0.34866 0.4352096,-0.696 -0.023859,-0.35444 -0.9087336,-1.48684 -0.9320892,-1.83381 -0.023881,-0.35475 -0.4765211,-0.92918 -0.4998383,-1.27558 -0.023924,-0.3554 0.1318311,-0.0517 0.1085483,-0.39775 -0.023933,-0.35553 0.2148477,-0.10949 0.1916263,-0.45444 -0.024025,-0.35697 -0.5740239,-1.51943 -0.5972423,-1.86436 -0.024075,-0.35769 0.3609198,-0.10018 0.3377659,-0.44417 -0.024131,-0.35852 0.2004715,-0.70332 0.1774003,-1.04605 -0.024221,-0.35987 0.3292644,-1.61072 0.3062829,-1.95215 -0.024326,-0.36138 -1.27757615,0.19819 -1.3004356,-0.1413 -0.0244794,-0.36361 0.22018265,-1.0349 0.1974911,-1.37199 -0.0246869,-0.36673 -0.0987037,-0.37367 -0.12114875,-0.70709 -0.0250946,-0.37283 0.45653605,-1.38913 0.43441725,-1.7177 -0.025701,-0.38183 -0.13674242,-0.53012 -0.15815112,-0.84818 -0.0272922,-0.40542 -0.29142553,-0.83107 -0.31120654,-1.12491 -0.0459813,-0.68315 -0.0709295,-0.91235 -0.0709295,-0.91235"
       style="fill:#8cc75d;fill-opacity:1;stroke:none;stroke-width:0.28387931px;stroke-linecap:butt;stroke-linejoin:miter;stroke-opacity:1"
       inkscape:export-xdpi="10.34"
       inkscape:export-ydpi="10.34" />
    <path
       inkscape:connector-curvature="0"
       id="path909"
       d="m 63.190634,253.99227 c 0,0.93366 -0.456017,1.74671 -0.544433,2.6679 -0.08914,0.92869 -0.270218,2.38732 -0.446729,3.29713 -0.177257,0.91368 0.161902,1.69792 -0.10094,2.58627 -0.263444,0.89042 -1.380536,1.2956 -1.727406,2.15428 -0.346887,0.85873 -0.978793,1.81334 -1.406564,2.63404 -0.426831,0.81885 -0.580692,1.32391 -1.085511,2.0986 -0.502545,0.77121 -0.986668,1.48476 -1.563993,2.20597 -0.572831,0.71563 -0.702381,2.16872 -1.346378,2.82903 -0.643885,0.66021 -1.61615,-0.2033 -2.313932,0.38397 -0.703479,0.59206 -1.507386,2.1702 -2.259626,2.68555 -0.755431,0.51755 -0.803375,0.61834 -1.601874,1.05595 -0.800328,0.43859 -2.366141,1.41197 -3.203578,1.76765 -0.837481,0.35569 -1.38341,0.69624 -2.251841,0.96641 -0.866527,0.26955 -1.736429,1.10135 -2.627636,1.28312 -0.887196,0.18095 -1.976954,-0.0308 -2.882554,0.0607 -0.898556,0.0907 -1.797947,0.0746 -2.708697,0.0746 -0.910589,0 -2.235248,-0.29424 -3.133645,-0.3849 -0.905732,-0.0914 -1.064639,-0.4807 -1.951958,-0.66168 -0.89108,-0.18177 -2.460455,-0.68556 -3.326862,-0.95508 -0.868389,-0.27011 -1.667083,-0.38619 -2.504529,-0.74185 -0.837489,-0.35568 -0.977788,-1.24129 -1.778166,-1.67992 -0.79862,-0.43764 -2.300694,-0.23374 -3.056233,-0.75137 -0.752139,-0.51529 -1.108195,-1.00967 -1.811582,-1.60162 -0.697916,-0.58736 -1.400175,-0.92031 -2.044173,-1.58064 -0.643885,-0.66023 -1.288297,-1.71945 -1.861039,-2.43493 -0.577417,-0.72131 -0.918216,-1.581 -1.420833,-2.35233 -0.50475,-0.77457 -1.133138,-1.20027 -1.559924,-2.01903 -0.42776,-0.8206 -0.7816089,-2.21561 -1.1284959,-3.07429 -0.346909,-0.85872 -0.369422,-1.12489 -0.632895,-2.01534 -0.262892,-0.88851 -0.8453032,-1.91623 -1.0225894,-2.83002 -0.1764884,-0.9097 -0.9701561,-2.25555 -1.0592974,-3.18411 -0.088449,-0.92135 0.054141,-1.81676 0.054141,-2.75061 0,-0.93368 1.0634495,-1.36661 1.1518664,-2.2878 0.089139,-0.9287 -0.5163952,-2.31629 -0.3398865,-3.22611 0.1772575,-0.91366 0.6962859,-1.89595 0.9591289,-2.78431 0.263443,-0.89041 -0.09161,-1.80108 0.25526,-2.65976 0.346887,-0.85872 1.7335189,-1.58255 2.1612909,-2.40322 0.426828,-0.81886 1.022129,-1.23209 1.526948,-2.00679 0.502547,-0.77122 0.181326,-1.35681 0.758653,-2.07802 0.572831,-0.71561 1.788055,-2.07171 2.432053,-2.73204 0.643885,-0.66021 0.610337,-1.44402 1.30812,-2.03129 0.703477,-0.59205 1.898805,-0.91489 2.651048,-1.43024 0.755431,-0.51755 1.658626,-0.59122 2.457127,-1.02882 0.800326,-0.43861 1.244591,-0.91317 2.082027,-1.26886 0.837484,-0.35569 1.30583,-1.08604 2.174264,-1.3562 0.866524,-0.26956 1.792439,-0.0865 2.683647,-0.26841 0.887195,-0.18096 2.393695,0.42532 3.299298,0.33391 0.898553,-0.0906 1.293657,-0.66489 2.20441,-0.66489 0.910589,0 2.359317,-0.42248 3.257716,-0.33182 0.90573,0.0914 1.370899,-0.14614 2.258216,0.0348 0.891083,0.18174 2.139012,1.22386 3.005419,1.49337 0.86839,0.27013 2.400313,0.97357 3.237757,1.32924 0.83749,0.35569 1.462183,-0.27749 2.262562,0.16114 0.798619,0.43766 1.654443,1.38065 2.409981,1.89825 0.75214,0.51531 0.818914,0.45448 1.522305,1.04646 0.697914,0.58735 1.163145,1.17304 1.807142,1.83337 0.643883,0.6602 1.454486,2.35041 2.027229,3.0659 0.577418,0.7213 1.235782,1.36555 1.7384,2.13687 0.504752,0.77458 0.881844,0.97998 1.30863,1.79873 0.42776,0.82062 1.121525,1.43558 1.468415,2.29422 0.346906,0.85874 0.686332,2.27249 0.949806,3.16294 0.262894,0.88849 -0.01892,1.6496 0.158372,2.56341 0.176488,0.9097 0.860416,2.1493 0.949557,3.07786 0.08845,0.92133 -0.107391,2.5819 -0.107391,3.51576 0,0 -0.518024,-0.96024 -0.518024,-0.96024"
       style="opacity:1;vector-effect:none;fill:#191919;fill-opacity:1;stroke:none;stroke-width:1.93361878;stroke-linecap:round;stroke-linejoin:miter;stroke-miterlimit:4;stroke-dasharray:none;stroke-dashoffset:0;stroke-opacity:1" />
    <g
       transform="matrix(7.8863579,-4.3911634,4.768931,8.7176761,-1943.2092,589.0089)"
       id="text922-7"
       style="font-style:normal;font-variant:normal;font-weight:normal;font-stretch:normal;font-size:10.58333302px;line-height:1.25;font-family:'URW Chancery L';-inkscape-font-specification:'URW Chancery L';letter-spacing:0px;word-spacing:0px;display:inline;fill:none;fill-opacity:1;stroke:#191919;stroke-width:0.31677049;stroke-miterlimit:4;stroke-dasharray:none;stroke-dashoffset:0;stroke-opacity:1;enable-background:new"
       aria-label="   #!"
       inkscape:export-xdpi="10.34"
       inkscape:export-ydpi="10.34">
      <path
         inkscape:connector-curvature="0"
         id="path928-5"
         d="m 210.87363,65.143626 -0.68892,0.0784 -0.41691,0.633529 c -0.0779,0.106545 -0.14867,0.224252 -0.21499,0.324119 -0.0191,0.03412 -0.0803,0.116195 -0.13493,0.209394 l -0.93822,-0.234743 c -0.0838,0.05585 -0.18443,0.137044 -0.19358,0.134566 -0.17512,0.139139 -0.31049,0.240171 -0.40177,0.323461 l 1.22325,0.232737 c -0.0596,0.111494 -0.10933,0.186429 -0.13753,0.218066 l -0.0782,0.106105 c -0.0713,0.118165 -0.16843,0.259586 -0.28446,0.434356 0,0 -0.0687,0.10846 -0.13244,0.19917 l -0.96061,-0.259772 c -0.22162,0.165824 -0.31006,0.239762 -0.59799,0.505453 l 1.22761,0.214655 c -0.30582,0.476853 -0.61289,0.923701 -1.02906,1.517958 l 0.86973,-0.166505 0.77351,-1.224772 0.97093,0.184777 c -0.10617,0.138182 -0.19177,0.272335 -0.21749,0.294824 l -0.36197,0.539643 c -0.0216,0.04327 -0.19914,0.299984 -0.51658,0.783508 l 0.87046,-0.16732 c 0.22121,-0.381938 0.63644,-1.044736 0.83289,-1.335195 l 0.84942,0.160914 0.31745,-0.228623 -0.9606,-0.259776 c 0.14006,-0.227181 0.14233,-0.236496 0.34126,-0.536101 l 0.36533,-0.587883 0.82267,0.15396 0.25686,-0.191748 c -0.18067,0.516172 -0.40709,1.170313 -0.76679,2.223983 0.20861,-0.095 0.21822,-0.09358 0.5479,-0.263072 0.0706,-0.145786 0.13153,-0.29248 0.19175,-0.429694 0.11611,-0.227239 0.22476,-0.474482 0.32634,-0.750645 0.13248,-0.301868 0.26475,-0.604081 0.38868,-0.916258 l 0.67563,-1.546028 -0.40381,0.143805 -0.47248,0.17496 c -0.14319,0.391145 -0.27615,0.759496 -0.46736,1.305217 l -0.87245,-0.236279 c 0.0779,-0.106534 0.22725,-0.330619 0.44275,-0.655194 0.18483,-0.283786 0.36226,-0.540119 0.4642,-0.699071 l -0.69759,0.07581 c -0.27268,0.426921 -0.29412,0.47044 -0.3911,0.611096 -0.097,0.140657 -0.13318,0.19926 -0.22521,0.321621 -0.0473,0.06575 -0.0943,0.131715 -0.1324,0.199944 l -0.98387,-0.246787 0.44016,-0.64652 c 0.25363,-0.392801 0.26999,-0.417772 0.48056,-0.724049 z m -1.18378,1.799798 0.9985,0.192459 c -0.11109,0.156472 -0.24382,0.355956 -0.37396,0.546544 -0.0688,0.109008 -0.13487,0.208722 -0.20118,0.308589 -0.038,0.06824 -0.0997,0.149767 -0.14698,0.215523 l -0.93309,-0.252865 z m 2.05533,2.765042 c -0.0403,0.02483 -0.0905,0.0577 -0.1421,0.100559 -0.0807,0.04967 -0.16269,0.109424 -0.24427,0.168539 l -0.0911,0.05804 -0.27257,0.174849 c 0.065,0.224876 0.21738,0.533928 0.37669,0.767498 0.37264,-0.222642 0.46358,-0.28148 0.75303,-0.530823 -0.0248,-0.04035 -0.0576,-0.100388 -0.0817,-0.150183 l -0.0654,-0.110844 -0.0807,-0.159545 c -0.024,-0.0498 -0.0809,-0.159267 -0.15195,-0.318084 z"
         style="fill:none;fill-opacity:1;stroke:#191919;stroke-width:0.31677049;stroke-linecap:butt;stroke-linejoin:miter;stroke-miterlimit:4;stroke-dasharray:none;stroke-dashoffset:0;stroke-opacity:1"
         inkscape:export-xdpi="10.34"
         inkscape:export-ydpi="10.34" />
    </g>
    <g
       transform="matrix(7.8863579,-4.3911633,4.768931,8.7176762,-1943.2092,589.00887)"
       id="text922"
       style="font-style:normal;font-variant:normal;font-weight:normal;font-stretch:normal;font-size:10.58333302px;line-height:1.25;font-family:'URW Chancery L';-inkscape-font-specification:'URW Chancery L';letter-spacing:0px;word-spacing:0px;display:inline;fill:#f5f5f5;fill-opacity:1;stroke:none;stroke-width:0.10559016;stroke-miterlimit:4;stroke-dasharray:none;stroke-dashoffset:0;stroke-opacity:1;enable-background:new"
       aria-label="   #!"
       inkscape:export-xdpi="10.34"
       inkscape:export-ydpi="10.34">
      <path
         inkscape:connector-curvature="0"
         id="path928"
         d="m 210.87363,65.143626 -0.68892,0.0784 -0.41691,0.633529 c -0.0779,0.106545 -0.14867,0.224252 -0.21499,0.324119 -0.0191,0.03412 -0.0803,0.116195 -0.13493,0.209394 l -0.93822,-0.234743 c -0.0838,0.05585 -0.18443,0.137044 -0.19358,0.134566 -0.17512,0.139139 -0.31049,0.240171 -0.40177,0.323461 l 1.22325,0.232737 c -0.0596,0.111494 -0.10933,0.186429 -0.13753,0.218066 l -0.0782,0.106105 c -0.0713,0.118165 -0.16843,0.259586 -0.28446,0.434356 0,0 -0.0687,0.10846 -0.13244,0.19917 l -0.96061,-0.259772 c -0.22162,0.165824 -0.31006,0.239762 -0.59799,0.505453 l 1.22761,0.214655 c -0.30582,0.476853 -0.61289,0.923701 -1.02906,1.517958 l 0.86973,-0.166505 0.77351,-1.224772 0.97093,0.184777 c -0.10617,0.138182 -0.19177,0.272335 -0.21749,0.294824 l -0.36197,0.539643 c -0.0216,0.04327 -0.19914,0.299984 -0.51658,0.783508 l 0.87046,-0.16732 c 0.22121,-0.381938 0.63644,-1.044736 0.83289,-1.335195 l 0.84942,0.160914 0.31745,-0.228623 -0.9606,-0.259776 c 0.14006,-0.227181 0.14233,-0.236496 0.34126,-0.536101 l 0.36533,-0.587883 0.82267,0.15396 0.25686,-0.191748 c -0.18067,0.516172 -0.40709,1.170313 -0.76679,2.223983 0.20861,-0.095 0.21822,-0.09358 0.5479,-0.263072 0.0706,-0.145786 0.13153,-0.29248 0.19175,-0.429694 0.11611,-0.227239 0.22476,-0.474482 0.32634,-0.750645 0.13248,-0.301868 0.26475,-0.604081 0.38868,-0.916258 l 0.67563,-1.546028 -0.40381,0.143805 -0.47248,0.17496 c -0.14319,0.391145 -0.27615,0.759496 -0.46736,1.305217 l -0.87245,-0.236279 c 0.0779,-0.106534 0.22725,-0.330619 0.44275,-0.655194 0.18483,-0.283786 0.36226,-0.540119 0.4642,-0.699071 l -0.69759,0.07581 c -0.27268,0.426921 -0.29412,0.47044 -0.3911,0.611096 -0.097,0.140657 -0.13318,0.19926 -0.22521,0.321621 -0.0473,0.06575 -0.0943,0.131715 -0.1324,0.199944 l -0.98387,-0.246787 0.44016,-0.64652 c 0.25363,-0.392801 0.26999,-0.417772 0.48056,-0.724049 z m -1.18378,1.799798 0.9985,0.192459 c -0.11109,0.156472 -0.24382,0.355956 -0.37396,0.546544 -0.0688,0.109008 -0.13487,0.208722 -0.20118,0.308589 -0.038,0.06824 -0.0997,0.149767 -0.14698,0.215523 l -0.93309,-0.252865 z m 2.05533,2.765042 c -0.0403,0.02483 -0.0905,0.0577 -0.1421,0.100559 -0.0807,0.04967 -0.16269,0.109424 -0.24427,0.168539 l -0.0911,0.05804 -0.27257,0.174849 c 0.065,0.224876 0.21738,0.533928 0.37669,0.767498 0.37264,-0.222642 0.46358,-0.28148 0.75303,-0.530823 -0.0248,-0.04035 -0.0576,-0.100388 -0.0817,-0.150183 l -0.0654,-0.110844 -0.0807,-0.159545 c -0.024,-0.0498 -0.0809,-0.159267 -0.15195,-0.318084 z"
         style="fill:#f5f5f5;fill-opacity:1;stroke:none;stroke-width:0.07919262;stroke-linecap:butt;stroke-linejoin:miter;stroke-miterlimit:4;stroke-dasharray:none;stroke-dashoffset:0;stroke-opacity:1"
         inkscape:export-xdpi="10.34"
         inkscape:export-ydpi="10.34" />
    </g>
  </g>
</svg>
